<?xml version="1.0" encoding="UTF-8" standalone="no"?>
<!-- Created with Inkscape (http://www.inkscape.org/) -->

<svg
   xmlns:dc="http://purl.org/dc/elements/1.1/"
   xmlns:cc="http://creativecommons.org/ns#"
   xmlns:rdf="http://www.w3.org/1999/02/22-rdf-syntax-ns#"
   xmlns:svg="http://www.w3.org/2000/svg"
   xmlns="http://www.w3.org/2000/svg"
   xmlns:sodipodi="http://sodipodi.sourceforge.net/DTD/sodipodi-0.dtd"
   xmlns:inkscape="http://www.inkscape.org/namespaces/inkscape"
   width="154.22537mm"
   height="161.35219mm"
   viewBox="0 0 546.46785 571.72035"
   id="svg10326"
   version="1.1"
   inkscape:version="0.91 r13725"
   sodipodi:docname="mobius.svg">
  <defs
     id="defs10328">
    <marker
       inkscape:stockid="Arrow1Mend"
       orient="auto"
       refY="0"
       refX="0"
       id="Arrow1Mend"
       style="overflow:visible"
       inkscape:isstock="true">
      <path
         id="path5136"
         d="M 0,0 5,-5 -12.5,0 5,5 0,0 Z"
         style="fill:#ff6600;fill-opacity:1;fill-rule:evenodd;stroke:#ff6600;stroke-width:1pt;stroke-opacity:1"
         transform="matrix(-0.4,0,0,-0.4,-4,0)"
         inkscape:connector-curvature="0" />
    </marker>
    <marker
       inkscape:stockid="Arrow1Lstart"
       orient="auto"
       refY="0"
       refX="0"
       id="Arrow1Lstart"
       style="overflow:visible"
       inkscape:isstock="true">
      <path
         id="path5127"
         d="M 0,0 5,-5 -12.5,0 5,5 0,0 Z"
         style="fill:#ff6600;fill-opacity:1;fill-rule:evenodd;stroke:#ff6600;stroke-width:1pt;stroke-opacity:1"
         transform="matrix(0.8,0,0,0.8,10,0)"
         inkscape:connector-curvature="0" />
    </marker>
  </defs>
  <sodipodi:namedview
     id="base"
     pagecolor="#ffffff"
     bordercolor="#666666"
     borderopacity="1.0"
     inkscape:pageopacity="0.0"
     inkscape:pageshadow="2"
     inkscape:zoom="1.0237385"
     inkscape:cx="294.10178"
     inkscape:cy="188.90667"
     inkscape:document-units="px"
     inkscape:current-layer="layer1"
     showgrid="false"
     inkscape:object-nodes="false"
     inkscape:snap-global="true"
     inkscape:window-width="1536"
     inkscape:window-height="801"
     inkscape:window-x="-8"
     inkscape:window-y="-8"
     inkscape:window-maximized="1"
     inkscape:object-paths="true"
     fit-margin-top="0"
     fit-margin-left="0"
     fit-margin-right="0"
     fit-margin-bottom="0" />
  <metadata
     id="metadata10331">
    <rdf:RDF>
      <cc:Work
         rdf:about="">
        <dc:format>image/svg+xml</dc:format>
        <dc:type
           rdf:resource="http://purl.org/dc/dcmitype/StillImage" />
        <dc:title></dc:title>
      </cc:Work>
    </rdf:RDF>
  </metadata>
  <g
     inkscape:label="Layer 1"
     inkscape:groupmode="layer"
     id="layer1"
     transform="translate(-135.39822,-228.09875)">
    <path
       id="path10880"
       style="fill:#0000ff;fill-rule:evenodd;stroke:#ff0000;stroke-width:6;stroke-linecap:butt;stroke-linejoin:miter;stroke-miterlimit:4;stroke-dasharray:none;stroke-opacity:1"
       d="M 291.23565,768.16329 C 319.55528,773.72962 371.37853,756.29675 395,742.3622 c 24.92989,-14.7064 32.8382,-48.54387 42,-76 11.4,-34.16359 12.79338,-71.05223 15,-107 2.45109,-39.9304 4.61794,-80.54563 -2,-120 -5.85863,-34.92756 -40.63157,-82.54794 -33.59339,-98.92314 l 39.19725,41.4498 c 6.0702,3.76785 24.66579,36.52927 30.39614,56.47334 8.97613,31.24075 9.72006,64.4965 10,97 0.40338,46.83604 -3.72771,93.89852 -12,140 -4.64193,25.86948 -4.53142,55.51675 -21,76 -12.51971,15.57174 -33.32061,24.54404 -53,28 -26.18665,4.59872 -59.26586,28.8172 -79,11"
       inkscape:connector-curvature="0"
       sodipodi:nodetypes="cssssccsssssc" />
    <path
       style="fill:#0000ff;fill-rule:evenodd;stroke:none;stroke-width:6;stroke-linecap:butt;stroke-linejoin:miter;stroke-miterlimit:4;stroke-dasharray:none;stroke-opacity:1"
       d="m 331,790.3622 c 0,0 -9.00796,-84.98534 -25,-124 -11.7819,-28.74347 -44.92398,-47.53556 -51,-78 -5.30673,-26.60732 9.27667,-53.47917 15,-80 6.51479,-30.18833 7.32033,-62.8286 22,-90 9.7529,-18.05217 26.22583,-31.87843 42,-45 17.63001,-14.66532 35.74662,-31.46143 58,-37 8.11613,-2.02 17.47208,-1.61701 25.01098,2.00473 18.20633,8.74645 41.5284,44.1263 41.5284,44.1263 0,0 -34.75311,-9.10481 -50.53938,-3.13103 -12.78589,4.83839 -23.03358,16.69997 -29,29 -11.13367,22.95254 -1.95418,51.48196 -9,76 -7.5364,26.22514 -19.93916,51.24639 -35,74 -15.76795,23.8219 -44.96766,38.08989 -57,64 -7.94199,17.10206 -6.51867,37.2021 -8,56 -1.70232,21.60226 -8.58814,44.70282 -1,65 3.8881,10.40012 22.23565,24.80109 22.23565,24.80109 z"
       id="path10888"
       inkscape:connector-curvature="0"
       sodipodi:nodetypes="caaaaaaacaaaaaaacc" />
    <path
       style="fill:none;fill-rule:evenodd;stroke:#ff6600;stroke-width:4;stroke-linecap:butt;stroke-linejoin:miter;stroke-miterlimit:4;stroke-dasharray:none;stroke-opacity:1"
       d="m 291.23565,768.16329 c 0,0 -1.38864,-45.25052 -3.23565,-67.80109 -1.17794,-14.38175 -2.77231,-28.74309 -5,-43 -3.19923,-20.4746 -12.37467,-40.28035 -12,-61"
       id="path10914"
       inkscape:connector-curvature="0" />
    <path
       style="fill:none;fill-rule:evenodd;stroke:#ff6600;stroke-width:4;stroke-linecap:butt;stroke-linejoin:miter;stroke-miterlimit:4;stroke-dasharray:none;stroke-opacity:1;marker-end:url(#Arrow1Mend)"
       d="m 271,596.3622 c 0.5014,-27.72832 10.08428,-54.73936 19,-81"
       id="path10912"
       inkscape:connector-curvature="0" />
    <path
       style="fill:none;fill-rule:evenodd;stroke:#ff6600;stroke-width:4;stroke-linecap:butt;stroke-linejoin:miter;stroke-miterlimit:4;stroke-dasharray:none;stroke-opacity:1"
       d="m 290,515.3622 c 10.93525,-32.20901 23.2008,-64.65234 42,-93 13.55785,-20.44413 29.11653,-41.12916 50,-54 15.71834,-9.68749 53.22174,-15.35151 53.22174,-15.35151"
       id="path10893"
       inkscape:connector-curvature="0" />
    <path
       style="fill:none;fill-rule:evenodd;stroke:#ff6600;stroke-width:4;stroke-linecap:butt;stroke-linejoin:miter;stroke-miterlimit:4;stroke-dasharray:none;stroke-opacity:1"
       d="m 441.06114,378.96644 c 0,0 19.691,35.15176 24.93886,54.39576 5.99498,21.98369 6.06403,45.23278 7,68 1.34209,32.64589 1.31273,65.4949 -2,98 -3.1619,31.02512 -6.90642,62.4928 -17,92 -7.52735,22.00518 -14.8885,46.24927 -32,62 -17.26199,15.88925 -41.84138,23.24196 -65,27 -9.62388,1.56171 -29.17361,-2.10281 -29.17361,-2.10281"
       id="path10962"
       inkscape:connector-curvature="0"
       sodipodi:nodetypes="caaaaaac" />
    <path
       style="fill:none;fill-rule:evenodd;stroke:#ff0000;stroke-width:6;stroke-linecap:butt;stroke-linejoin:miter;stroke-miterlimit:4;stroke-dasharray:none;stroke-opacity:1"
       d="m 329.10576,789.14833 c 0,0 -9.00796,-84.98534 -25,-124 -11.7819,-28.74347 -44.92398,-47.53556 -51,-78 -5.30673,-26.60732 9.27667,-53.47917 15,-80 6.51479,-30.18833 7.32033,-62.8286 22,-89.99999 9.7529,-18.05217 26.22583,-31.87843 42,-45 17.63002,-14.66532 35.74663,-31.46143 58.00001,-37 8.11613,-2.02 17.47208,-1.61701 25.01098,2.00473 18.20633,8.74645 41.5284,44.1263 41.5284,44.1263 0,0 -34.75311,-9.10481 -50.53938,-3.13103 -12.78589,4.83839 -23.03358,16.69997 -29,29 -11.13367,22.95254 -1.95418,51.48195 -9,75.99999 -7.5364,26.22514 -19.93916,51.24639 -35.00001,74 -15.76795,23.8219 -44.96766,38.08989 -57,64 -7.94199,17.10206 -6.51867,37.2021 -8,56 -1.70232,21.60226 -8.58814,44.70282 -1,65 3.8881,10.40012 22.23565,24.80109 22.23565,24.80109 z"
       id="path10888-9"
       inkscape:connector-curvature="0"
       sodipodi:nodetypes="caaaaaaacaaaaaaacc" />
    <g
       id="g10974"
       transform="translate(518.68717,17.582616)">
      <text
         sodipodi:linespacing="125%"
         id="text10964"
         y="503.99677"
         x="76.508965"
         style="font-style:normal;font-weight:normal;font-size:50px;line-height:125%;font-family:sans-serif;text-align:center;letter-spacing:0px;word-spacing:0px;text-anchor:middle;fill:#ff0000;fill-opacity:1;stroke:#000000;stroke-width:1px;stroke-linecap:butt;stroke-linejoin:miter;stroke-opacity:1"
         xml:space="preserve"><tspan
           y="503.99677"
           x="76.508965"
           id="tspan10966"
           sodipodi:role="line">Edges</tspan></text>
      <text
         sodipodi:linespacing="125%"
         id="text10968"
         y="557.11853"
         x="77.168144"
         style="font-style:normal;font-weight:normal;font-size:50px;line-height:125%;font-family:sans-serif;text-align:center;letter-spacing:0px;word-spacing:0px;text-anchor:middle;fill:#000000;fill-opacity:1;stroke:none;stroke-width:1px;stroke-linecap:butt;stroke-linejoin:miter;stroke-opacity:1"
         xml:space="preserve"><tspan
           y="557.11853"
           x="77.168144"
           id="tspan10970"
           sodipodi:role="line">are all</tspan><tspan
           id="tspan10972"
           y="619.61853"
           x="77.168144"
           sodipodi:role="line">a point</tspan></text>
    </g>
    <text
       xml:space="preserve"
       style="font-style:normal;font-weight:normal;font-size:70px;line-height:125%;font-family:sans-serif;text-align:center;letter-spacing:0px;word-spacing:0px;text-anchor:middle;fill:#ff6600;fill-opacity:1;stroke:#000000;stroke-width:1px;stroke-linecap:butt;stroke-linejoin:miter;stroke-opacity:1"
       x="211.9682"
       y="566.88666"
       id="text10981"
       sodipodi:linespacing="125%"><tspan
         sodipodi:role="line"
         id="tspan10983"
         x="211.9682"
         y="566.88666">m</tspan></text>
    <text
       xml:space="preserve"
       style="font-style:normal;font-weight:normal;font-size:40px;line-height:125%;font-family:sans-serif;text-align:center;letter-spacing:0px;word-spacing:0px;text-anchor:middle;fill:#000000;fill-opacity:1;stroke:none;stroke-width:1px;stroke-linecap:butt;stroke-linejoin:miter;stroke-opacity:1"
       x="372.85916"
       y="258.48938"
       id="text10985"
       sodipodi:linespacing="125%"><tspan
         sodipodi:role="line"
         id="tspan10987"
         x="372.85916"
         y="258.48938">Mobius Strip with Edges</tspan><tspan
         sodipodi:role="line"
         x="372.85916"
         y="308.48938"
         id="tspan10989">Equivalent to a Point</tspan></text>
  </g>
</svg>
